<?xml version="1.0" encoding="utf-8"?>
<!-- Generator: Adobe Illustrator 22.1.0, SVG Export Plug-In . SVG Version: 6.00 Build 0)  -->
<svg version="1.1" id="Layer_1" xmlns="http://www.w3.org/2000/svg" xmlns:xlink="http://www.w3.org/1999/xlink" x="0px" y="0px"
	 viewBox="0 0 82 82" style="enable-background:new 0 0 82 82;" xml:space="preserve">
<style type="text/css">
	.st0{fill:#CCCCCC;}
	.st1{fill:none;}
</style>
<title>Facebook</title>
<g id="Icons">
	<path class="st0" d="M41,82C18.4,82,0,63.6,0,41S18.4,0,41,0s41,18.4,41,41S63.6,82,41,82z M41,2C19.5,2,2,19.5,2,41s17.5,39,39,39
		s39-17.5,39-39S62.5,2,41,2z"/>
</g>
<path class="st1" d="M20,23.5h42v35H20V23.5z"/>
<path class="st0" d="M25.9,25.9h30.3c2.1,0,3.8,1.7,3.8,3.8v22.7c0,2.1-1.7,3.8-3.8,3.8H25.9c-2.1,0-3.8-1.7-3.8-3.8V29.6
	C22.1,27.5,23.7,25.9,25.9,25.9 M41,39.1l15.2-9.5H25.9L41,39.1 M25.9,52.4h30.3V34.1L41,43.6l-15.1-9.4V52.4z"/>
</svg>
